<svg width="135" height="40" viewBox="0 0 135 40" fill="none" xmlns="http://www.w3.org/2000/svg">
<g clip-path="url(#clip0_6950_180990)">
<path fill-rule="evenodd" clip-rule="evenodd" d="M10.7566 1.72057e-06H124.249C124.655 1.72057e-06 125.067 -0.000128279 125.472 0.00187172C125.753 0.00346346 126.039 0.00766047 126.322 0.0118031C126.386 0.0127355 126.449 0.0136652 126.512 0.0145617C127.269 0.0220095 128.023 0.0811045 128.769 0.191322C129.518 0.304242 130.243 0.515569 130.921 0.818322C132.278 1.43603 133.383 2.4152 134.079 3.61812C134.419 4.2175 134.655 4.85928 134.777 5.52144C134.903 6.18324 134.973 6.85242 134.987 7.52344C134.991 7.83008 134.991 8.1377 134.991 8.44434C135 8.80664 135 9.16992 135 9.53613V30.4648C135 30.834 135 31.1953 134.991 31.5586C134.991 31.8691 134.991 32.1699 134.987 32.4805C134.973 33.1515 134.903 33.8206 134.777 34.4824C134.655 35.1449 134.42 35.7871 134.079 36.3867C133.733 36.9835 133.283 37.5282 132.746 38.001C132.213 38.4778 131.597 38.8758 130.921 39.1797C130.243 39.4833 129.518 39.6958 128.769 39.8105C128.023 39.9198 127.268 39.9789 126.512 39.9873C126.169 39.9941 125.816 39.998 125.472 39.998C125.067 40 124.655 40 124.249 40H10.7566C10.343 40 9.93419 40 9.5216 39.998C9.17621 39.998 8.83358 39.9941 8.48488 39.9873C7.72738 39.9785 6.9717 39.9194 6.22416 39.8105C5.47772 39.6966 4.75481 39.484 4.07967 39.1797C3.40371 38.876 2.78717 38.478 2.25357 38.001C1.71505 37.5301 1.26616 36.9849 0.924356 36.3867C0.581124 35.7875 0.343339 35.1453 0.219258 34.4824C0.0936522 33.8207 0.0260614 33.1514 0.0170916 32.4805C0.00993901 32.2683 0.00715699 32.0607 0.00435296 31.8514C0.0030527 31.7544 0.00174771 31.657 0 31.5586V8.44434C0.00176842 8.34604 0.00308357 8.24765 0.00439918 8.14922C0.0071877 7.94059 0.00997831 7.7318 0.0170916 7.52348C0.0260586 6.85252 0.0936495 6.18319 0.219258 5.52148C0.343683 4.85894 0.581453 4.21711 0.924356 3.61816C1.26632 3.01802 1.71514 2.47064 2.25357 1.99707C2.7892 1.52217 3.40534 1.12447 4.07967 0.818412C4.75482 0.514917 5.4778 0.303534 6.22416 0.191412C6.97157 0.081678 7.72733 0.0226035 8.48488 0.0147017C8.55727 0.0136865 8.6294 0.0126317 8.70135 0.0115795C8.97596 0.00756356 9.24792 0.00358651 9.5216 0.00200172C9.9342 1.72062e-06 10.3429 1.72057e-06 10.7566 1.72057e-06ZM8.40804 39.1173C8.74966 39.1241 9.08566 39.128 9.42998 39.128L124.35 39.13L125.576 39.128C125.912 39.128 126.259 39.1241 126.59 39.1173C127.297 39.1097 128.004 39.0551 128.702 38.9542C129.358 38.8557 129.993 38.6703 130.587 38.4043C131.173 38.1407 131.707 37.7954 132.169 37.3815C132.631 36.9758 133.018 36.5081 133.316 35.9956C133.615 35.4698 133.821 34.9064 133.927 34.3252C134.042 33.7122 134.106 33.0926 134.12 32.4713C134.124 32.1646 134.124 31.8667 134.124 31.5414C134.133 31.1839 134.133 30.8294 134.133 30.466V9.53295C134.133 9.17301 134.133 8.81601 134.124 8.44093C134.124 8.13813 134.124 7.83386 134.121 7.55061C134.107 6.91801 134.042 6.28713 133.924 5.663C133.818 5.0894 133.614 4.53335 133.32 4.01374C132.718 2.97461 131.763 2.12826 130.59 1.5933C129.995 1.32872 129.359 1.14404 128.702 1.04533C128.008 0.944474 127.306 0.890111 126.602 0.882711L125.57 0.870008H9.43053L8.41082 0.882221C7.70067 0.890008 6.99218 0.94486 6.29129 1.04631C5.6412 1.1438 5.01136 1.3272 4.42286 1.59037C3.83742 1.85582 3.30266 2.20091 2.83807 2.61305C2.37296 3.02132 1.98554 3.4935 1.69085 4.01129C1.39165 4.53452 1.18454 5.09514 1.07668 5.67374C0.960772 6.2928 0.898236 6.91875 0.889618 7.5462C0.883007 7.74938 0.873016 8.44093 0.873016 8.44093V31.5463C0.873016 31.5463 0.882396 32.2487 0.889561 32.4596C0.898562 33.0881 0.961463 33.715 1.07772 34.335C1.18538 34.912 1.39233 35.471 1.69137 35.9925C1.98715 36.5107 2.37673 36.9825 2.84466 37.3893C3.30591 37.801 3.83897 38.1443 4.42342 38.4062C5.01327 38.6702 5.6443 38.8549 6.29571 38.9542C6.9943 39.0546 7.70034 39.1091 8.40804 39.1173Z" fill="#A6A6A6"/>
<path d="M9.43001 39.1271C9.08569 39.1271 8.74969 39.1232 8.40807 39.1164C7.70037 39.1083 6.99433 39.0537 6.29574 38.9533C5.64433 38.854 5.0133 38.6693 4.42345 38.4053C3.839 38.1435 3.30594 37.8001 2.84469 37.3885C2.37676 36.9817 1.98718 36.5098 1.6914 35.9917C1.39236 35.4702 1.18541 34.9112 1.07775 34.3341C0.961494 33.7141 0.898592 33.0872 0.889592 32.4587C0.882427 32.2478 0.873047 31.5455 0.873047 31.5455V8.44006C0.873047 8.44006 0.883037 7.74851 0.889648 7.54534C0.898266 6.91789 0.960802 6.29193 1.07671 5.67288C1.18457 5.09427 1.39168 4.53366 1.69088 4.01043C1.98557 3.49263 2.37299 3.02045 2.8381 2.61219C3.30269 2.20004 3.83745 1.85495 4.42289 1.5895C5.01139 1.32633 5.64123 1.14293 6.29132 1.04545C6.99221 0.943992 7.7007 0.889141 8.41085 0.881353L9.43056 0.869141H125.57L126.602 0.881843C127.306 0.889244 128.008 0.943606 128.702 1.04447C129.359 1.14317 129.995 1.32785 130.59 1.59243C131.763 2.12739 132.718 2.97374 133.32 4.01287C133.614 4.53248 133.818 5.08853 133.924 5.66213C134.042 6.28626 134.107 6.91714 134.121 7.54974C134.124 7.833 134.124 8.13726 134.124 8.44006C134.133 8.81514 134.133 9.17215 134.133 9.53208V30.4651C134.133 30.8285 134.133 31.1831 134.124 31.5406C134.124 31.8658 134.124 32.1638 134.12 32.4704C134.107 33.0918 134.042 33.7114 133.927 34.3243C133.821 34.9055 133.615 35.4689 133.316 35.9947C133.018 36.5072 132.631 36.975 132.169 37.3807C131.707 37.7945 131.173 38.1399 130.587 38.4034C129.994 38.6694 129.358 38.8548 128.702 38.9533C128.004 39.0543 127.297 39.1088 126.59 39.1164C126.259 39.1232 125.912 39.1271 125.576 39.1271L124.35 39.1291L9.43001 39.1271Z" fill="black"/>
<path d="M32.7973 20.3003C32.8081 19.4657 33.0298 18.6473 33.4418 17.9213C33.8538 17.1954 34.4428 16.5854 35.1539 16.1483C34.7021 15.5031 34.1062 14.9722 33.4134 14.5976C32.7205 14.2231 31.9499 14.0152 31.1627 13.9906C29.4835 13.8143 27.8555 14.9954 26.9998 14.9954C26.1275 14.9954 24.81 14.0081 23.3913 14.0373C22.4736 14.0669 21.5793 14.3338 20.7954 14.8118C20.0115 15.2899 19.3649 15.9629 18.9184 16.7651C16.9844 20.1136 18.427 25.0346 20.2796 27.7412C21.2065 29.0666 22.2898 30.547 23.7072 30.4945C25.0943 30.437 25.6123 29.61 27.2866 29.61C28.9454 29.61 29.4314 30.4945 30.8776 30.4611C32.366 30.437 33.3038 29.1299 34.1981 27.792C34.8641 26.8476 35.3766 25.8039 35.7166 24.6995C34.8518 24.3338 34.1139 23.7216 33.5948 22.9393C33.0757 22.157 32.7983 21.2392 32.7973 20.3003Z" fill="white"/>
<path d="M30.0656 12.2113C30.8772 11.2371 31.277 9.98494 31.1802 8.7207C29.9403 8.85092 28.7951 9.44348 27.9726 10.3803C27.5704 10.838 27.2624 11.3704 27.0662 11.9472C26.87 12.524 26.7893 13.1337 26.8289 13.7417C27.449 13.7481 28.0625 13.6137 28.6232 13.3486C29.1838 13.0835 29.6771 12.6946 30.0656 12.2113Z" fill="white"/>
<path d="M50.3308 27.1397H45.5974L44.4607 30.4962H42.4558L46.9392 18.0782H49.0222L53.5056 30.4962H51.4665L50.3308 27.1397ZM46.0876 25.5909H49.8396L47.99 20.1436H47.9383L46.0876 25.5909Z" fill="white"/>
<path d="M63.1882 25.9698C63.1882 28.7833 61.6824 30.5909 59.4099 30.5909C58.8343 30.621 58.2618 30.4884 57.758 30.2082C57.2542 29.9281 56.8394 29.5118 56.5613 29.0069H56.5183V33.4913H54.6599V21.4424H56.4587V22.9483H56.4929C56.7839 22.4458 57.2056 22.0316 57.7132 21.7498C58.2209 21.4679 58.7954 21.329 59.3757 21.3477C61.6735 21.3477 63.1882 23.1641 63.1882 25.9698ZM61.2781 25.9698C61.2781 24.1368 60.3308 22.9317 58.8855 22.9317C57.4656 22.9317 56.5105 24.1622 56.5105 25.9698C56.5105 27.794 57.4656 29.0157 58.8855 29.0157C60.3308 29.0157 61.2781 27.8194 61.2781 25.9698Z" fill="white"/>
<path d="M73.1531 25.9698C73.1531 28.7833 71.6472 30.5909 69.3748 30.5909C68.7991 30.621 68.2266 30.4884 67.7228 30.2082C67.219 29.9281 66.8043 29.5118 66.5261 29.0069H66.4831V33.4913H64.6247V21.4424H66.4235V22.9483H66.4577C66.7487 22.4458 67.1704 22.0316 67.678 21.7498C68.1857 21.468 68.7602 21.329 69.3405 21.3477C71.6384 21.3477 73.1531 23.1641 73.1531 25.9698ZM71.2429 25.9698C71.2429 24.1368 70.2956 22.9317 68.8503 22.9317C67.4304 22.9317 66.4753 24.1622 66.4753 25.9698C66.4753 27.794 67.4304 29.0157 68.8503 29.0157C70.2957 29.0157 71.2429 27.8194 71.2429 25.9698Z" fill="white"/>
<path d="M79.739 27.0362C79.8767 28.2676 81.073 29.0762 82.7078 29.0762C84.2742 29.0762 85.4011 28.2676 85.4011 27.1572C85.4011 26.1934 84.7214 25.6162 83.1121 25.2207L81.5027 24.833C79.2224 24.2822 78.1638 23.2158 78.1638 21.4854C78.1638 19.3428 80.031 17.8711 82.6824 17.8711C85.3064 17.8711 87.1052 19.3428 87.1658 21.4854H85.2898C85.1775 20.2461 84.1531 19.4981 82.656 19.4981C81.1589 19.4981 80.1345 20.2549 80.1345 21.3565C80.1345 22.2344 80.7888 22.751 82.3894 23.1465L83.7575 23.4824C86.3054 24.0849 87.364 25.1084 87.364 26.9248C87.364 29.248 85.5134 30.7031 82.57 30.7031C79.8161 30.7031 77.9568 29.2822 77.8366 27.0361L79.739 27.0362Z" fill="white"/>
<path d="M91.3747 19.2999V21.4424H93.0964V22.9141H91.3747V27.9053C91.3747 28.6807 91.7195 29.042 92.4763 29.042C92.6807 29.0385 92.8848 29.0241 93.0876 28.999V30.4619C92.7474 30.5255 92.4015 30.5543 92.0554 30.5479C90.2224 30.5479 89.5076 29.8594 89.5076 28.1035V22.9141H88.1912V21.4424H89.5075V19.2999H91.3747Z" fill="white"/>
<path d="M94.0935 25.9698C94.0935 23.1212 95.7713 21.3311 98.3875 21.3311C101.012 21.3311 102.682 23.1211 102.682 25.9698C102.682 28.8262 101.021 30.6085 98.3875 30.6085C95.7546 30.6085 94.0935 28.8262 94.0935 25.9698ZM100.789 25.9698C100.789 24.0157 99.8933 22.8624 98.3875 22.8624C96.8816 22.8624 95.9871 24.0245 95.9871 25.9698C95.9871 27.9317 96.8816 29.0762 98.3875 29.0762C99.8933 29.0762 100.789 27.9317 100.789 25.9698Z" fill="white"/>
<path d="M104.215 21.4424H105.987V22.9834H106.03C106.15 22.5021 106.432 22.0768 106.829 21.7789C107.225 21.481 107.712 21.3288 108.208 21.3477C108.422 21.3469 108.636 21.3702 108.845 21.417V23.1553C108.574 23.0727 108.292 23.0348 108.01 23.043C107.74 23.0321 107.47 23.0797 107.221 23.1825C106.971 23.2854 106.746 23.4412 106.562 23.6391C106.378 23.8369 106.239 24.0723 106.155 24.329C106.07 24.5856 106.042 24.8575 106.073 25.126V30.4961H104.215L104.215 21.4424Z" fill="white"/>
<path d="M117.413 27.837C117.163 29.4805 115.562 30.6084 113.514 30.6084C110.881 30.6084 109.246 28.8438 109.246 26.0127C109.246 23.1729 110.889 21.3311 113.436 21.3311C115.941 21.3311 117.516 23.0518 117.516 25.7969V26.4336H111.122V26.5459C111.092 26.8791 111.134 27.2148 111.244 27.5307C111.354 27.8465 111.531 28.1353 111.761 28.3778C111.991 28.6204 112.271 28.8111 112.58 28.9374C112.89 29.0637 113.223 29.1227 113.557 29.1104C113.997 29.1515 114.437 29.0498 114.814 28.8204C115.191 28.591 115.483 28.246 115.648 27.837L117.413 27.837ZM111.131 25.1348H115.657C115.674 24.8352 115.628 24.5354 115.524 24.2542C115.419 23.973 115.257 23.7165 115.049 23.5007C114.84 23.2849 114.589 23.1146 114.312 23.0004C114.034 22.8861 113.736 22.8305 113.436 22.837C113.134 22.8352 112.834 22.8933 112.554 23.008C112.274 23.1228 112.019 23.2919 111.805 23.5055C111.59 23.7191 111.42 23.9731 111.305 24.2527C111.189 24.5324 111.13 24.8322 111.131 25.1348Z" fill="white"/>
<path d="M45.8547 8.7315C46.2443 8.70354 46.6353 8.7624 46.9994 8.90383C47.3635 9.04527 47.6917 9.26575 47.9603 9.54937C48.2289 9.833 48.4312 10.1727 48.5526 10.544C48.674 10.9152 48.7115 11.3088 48.6623 11.6963C48.6623 13.6026 47.6321 14.6983 45.8547 14.6983H43.6995V8.7315H45.8547ZM44.6262 13.8545H45.7512C46.0296 13.8711 46.3082 13.8255 46.5668 13.7209C46.8253 13.6163 47.0573 13.4553 47.2458 13.2498C47.4343 13.0442 47.5745 12.7992 47.6564 12.5326C47.7383 12.2659 47.7596 11.9844 47.719 11.7085C47.7567 11.4337 47.7331 11.1539 47.65 10.8892C47.5669 10.6246 47.4263 10.3816 47.2382 10.1776C47.0501 9.9737 46.8193 9.81389 46.5622 9.70966C46.3051 9.60542 46.0282 9.55934 45.7512 9.57471H44.6262V13.8545Z" fill="white"/>
<path d="M49.7092 12.4448C49.6809 12.1489 49.7148 11.8504 49.8086 11.5683C49.9024 11.2862 50.0542 11.0269 50.2541 10.8069C50.4541 10.5869 50.6978 10.4111 50.9697 10.2909C51.2415 10.1706 51.5355 10.1085 51.8328 10.1085C52.13 10.1085 52.424 10.1706 52.6959 10.2909C52.9677 10.4111 53.2114 10.5869 53.4114 10.8069C53.6113 11.0269 53.7631 11.2862 53.8569 11.5683C53.9508 11.8504 53.9846 12.1489 53.9563 12.4448C53.9851 12.7411 53.9517 13.04 53.8581 13.3226C53.7645 13.6051 53.6128 13.8649 53.4128 14.0853C53.2129 14.3057 52.969 14.4819 52.6968 14.6024C52.4247 14.7229 52.1304 14.7852 51.8328 14.7852C51.5351 14.7852 51.2408 14.7229 50.9687 14.6024C50.6966 14.4819 50.4527 14.3057 50.2527 14.0853C50.0527 13.8649 49.901 13.6051 49.8074 13.3226C49.7138 13.04 49.6804 12.7411 49.7092 12.4448ZM53.0422 12.4448C53.0422 11.4688 52.6037 10.898 51.8342 10.898C51.0618 10.898 50.6272 11.4688 50.6272 12.4448C50.6272 13.4287 51.0618 13.9951 51.8342 13.9951C52.6038 13.9951 53.0422 13.4248 53.0422 12.4448Z" fill="white"/>
<path d="M59.6018 14.6982H58.6799L57.7493 11.3818H57.679L56.7522 14.6982H55.8391L54.5979 10.1953H55.4993L56.3059 13.6313H56.3723L57.2981 10.1953H58.1506L59.0764 13.6313H59.1467L59.9495 10.1953H60.8381L59.6018 14.6982Z" fill="white"/>
<path d="M61.8821 10.1953H62.7375V10.9106H62.804C62.9166 10.6537 63.1066 10.4384 63.3475 10.2946C63.5884 10.1507 63.8681 10.0857 64.1477 10.1084C64.3668 10.0919 64.5868 10.125 64.7914 10.2051C64.996 10.2852 65.1799 10.4103 65.3296 10.5711C65.4793 10.7319 65.5909 10.9244 65.6561 11.1342C65.7213 11.344 65.7385 11.5658 65.7063 11.7832V14.6982H64.8176V12.0064C64.8176 11.2827 64.5032 10.9229 63.8459 10.9229C63.6972 10.9159 63.5487 10.9412 63.4106 10.9971C63.2726 11.0529 63.1482 11.1379 63.0461 11.2463C62.944 11.3547 62.8665 11.4839 62.819 11.625C62.7714 11.7661 62.755 11.9159 62.7707 12.064V14.6982H61.8821L61.8821 10.1953Z" fill="white"/>
<path d="M67.1223 8.4375H68.011V14.6982H67.1223V8.4375Z" fill="white"/>
<path d="M69.2463 12.4448C69.218 12.1489 69.2519 11.8503 69.3458 11.5682C69.4396 11.2862 69.5914 11.0268 69.7914 10.8068C69.9913 10.5868 70.2351 10.4111 70.5069 10.2908C70.7788 10.1705 71.0728 10.1084 71.3701 10.1084C71.6674 10.1084 71.9614 10.1705 72.2333 10.2908C72.5051 10.4111 72.7489 10.5868 72.9488 10.8068C73.1488 11.0268 73.3006 11.2862 73.3944 11.5682C73.4883 11.8503 73.5222 12.1489 73.4939 12.4448C73.5227 12.7411 73.4892 13.0401 73.3956 13.3226C73.302 13.6051 73.1503 13.8649 72.9503 14.0853C72.7503 14.3057 72.5063 14.4819 72.2342 14.6024C71.9621 14.7229 71.6677 14.7852 71.3701 14.7852C71.0725 14.7852 70.7781 14.7229 70.506 14.6024C70.2339 14.4819 69.99 14.3057 69.7899 14.0853C69.5899 13.8649 69.4382 13.6051 69.3446 13.3226C69.251 13.0401 69.2175 12.7411 69.2463 12.4448ZM72.5793 12.4448C72.5793 11.4688 72.1408 10.898 71.3713 10.898C70.5989 10.898 70.1643 11.4688 70.1643 12.4448C70.1643 13.4287 70.5989 13.9951 71.3713 13.9951C72.1409 13.9951 72.5793 13.4248 72.5793 12.4448Z" fill="white"/>
<path d="M74.4294 13.4248C74.4294 12.6143 75.033 12.147 76.1042 12.0806L77.324 12.0103V11.6216C77.324 11.146 77.0095 10.8775 76.4021 10.8775C75.906 10.8775 75.5623 11.0596 75.4636 11.3779H74.6033C74.6941 10.6045 75.4216 10.1084 76.4431 10.1084C77.572 10.1084 78.2087 10.6704 78.2087 11.6216V14.6983H77.3533V14.0654H77.283C77.1402 14.2924 76.9398 14.4775 76.7022 14.6017C76.4646 14.7259 76.1983 14.7848 75.9304 14.7724C75.7414 14.7921 75.5503 14.7719 75.3696 14.7132C75.1888 14.6545 75.0224 14.5586 74.8809 14.4317C74.7395 14.3047 74.6263 14.1495 74.5485 13.9761C74.4708 13.8027 74.4302 13.6149 74.4294 13.4248ZM77.324 13.04V12.6636L76.2244 12.7339C75.6042 12.7754 75.323 12.9863 75.323 13.3833C75.323 13.7886 75.6745 14.0244 76.158 14.0244C76.2996 14.0388 76.4427 14.0245 76.5787 13.9824C76.7147 13.9403 76.8409 13.8713 76.9497 13.7794C77.0584 13.6876 77.1476 13.5748 77.212 13.4478C77.2763 13.3208 77.3144 13.1821 77.324 13.04Z" fill="white"/>
<path d="M79.3767 12.4448C79.3767 11.022 80.1082 10.1206 81.2458 10.1206C81.5273 10.1077 81.8066 10.1751 82.0511 10.315C82.2956 10.4548 82.4953 10.6615 82.6267 10.9106H82.6931V8.4375H83.5818V14.6982H82.7302V13.9868H82.6599C82.5183 14.2343 82.3117 14.4383 82.0624 14.5768C81.8132 14.7153 81.5308 14.783 81.2458 14.7724C80.1003 14.7725 79.3767 13.8711 79.3767 12.4448ZM80.2947 12.4448C80.2947 13.3999 80.7449 13.9746 81.4978 13.9746C82.2468 13.9746 82.7097 13.3916 82.7097 12.4487C82.7097 11.5103 82.242 10.919 81.4978 10.919C80.7498 10.919 80.2947 11.4976 80.2947 12.4448Z" fill="white"/>
<path d="M87.2585 12.4448C87.2302 12.1489 87.2641 11.8504 87.3579 11.5683C87.4518 11.2862 87.6035 11.0269 87.8035 10.8069C88.0034 10.5869 88.2471 10.4111 88.519 10.2909C88.7908 10.1706 89.0848 10.1085 89.3821 10.1085C89.6793 10.1085 89.9733 10.1706 90.2452 10.2909C90.517 10.4111 90.7607 10.5869 90.9607 10.8069C91.1606 11.0269 91.3124 11.2862 91.4062 11.5683C91.5001 11.8504 91.5339 12.1489 91.5056 12.4448C91.5345 12.7411 91.501 13.04 91.4074 13.3226C91.3138 13.6051 91.1622 13.8649 90.9622 14.0853C90.7622 14.3057 90.5183 14.4819 90.2462 14.6024C89.974 14.7229 89.6797 14.7852 89.3821 14.7852C89.0845 14.7852 88.7901 14.7229 88.518 14.6024C88.2459 14.4819 88.002 14.3057 87.802 14.0853C87.602 13.8649 87.4503 13.6051 87.3567 13.3226C87.2631 13.04 87.2297 12.7411 87.2585 12.4448ZM90.5915 12.4448C90.5915 11.4688 90.1531 10.898 89.3835 10.898C88.6111 10.898 88.1765 11.4688 88.1765 12.4448C88.1765 13.4287 88.6111 13.9951 89.3835 13.9951C90.1531 13.9951 90.5915 13.4248 90.5915 12.4448Z" fill="white"/>
<path d="M92.698 10.1953H93.5535V10.9106H93.6199C93.7325 10.6537 93.9225 10.4384 94.1634 10.2946C94.4043 10.1507 94.684 10.0857 94.9636 10.1084C95.1827 10.0919 95.4027 10.125 95.6073 10.2051C95.8119 10.2852 95.9959 10.4103 96.1456 10.5711C96.2952 10.7319 96.4068 10.9244 96.472 11.1342C96.5372 11.344 96.5544 11.5658 96.5222 11.7832V14.6982H95.6335V12.0064C95.6335 11.2827 95.3191 10.9229 94.6619 10.9229C94.5131 10.9159 94.3646 10.9412 94.2265 10.9971C94.0885 11.0529 93.9641 11.1379 93.862 11.2463C93.7599 11.3547 93.6824 11.4839 93.6349 11.625C93.5874 11.7661 93.5709 11.9159 93.5867 12.064V14.6982H92.698V10.1953Z" fill="white"/>
<path d="M101.544 9.07423V10.2158H102.519V10.9644H101.544V13.2798C101.544 13.7515 101.738 13.958 102.18 13.958C102.294 13.9577 102.407 13.9508 102.519 13.9375V14.6777C102.36 14.7063 102.198 14.7215 102.036 14.7231C101.048 14.7231 100.654 14.3755 100.654 13.5073V10.9643H99.9392V10.2158H100.654V9.07423H101.544Z" fill="white"/>
<path d="M103.733 8.4375H104.614V10.919H104.684C104.802 10.6596 104.998 10.443 105.243 10.2987C105.489 10.1543 105.773 10.0893 106.057 10.1123C106.275 10.1004 106.493 10.1368 106.695 10.2189C106.898 10.3009 107.079 10.4266 107.228 10.5869C107.376 10.7473 107.487 10.9383 107.552 11.1465C107.618 11.3546 107.637 11.5747 107.608 11.791V14.6982H106.719V12.0103C106.719 11.291 106.384 10.9268 105.756 10.9268C105.603 10.9142 105.449 10.9352 105.306 10.9883C105.162 11.0413 105.031 11.1252 104.923 11.2339C104.815 11.3426 104.732 11.4737 104.68 11.6178C104.628 11.7619 104.608 11.9157 104.622 12.0683V14.6982H103.733L103.733 8.4375Z" fill="white"/>
<path d="M112.79 13.4824C112.669 13.894 112.407 14.25 112.051 14.4881C111.694 14.7263 111.265 14.8314 110.839 14.7852C110.542 14.793 110.247 14.7362 109.975 14.6186C109.702 14.5011 109.458 14.3257 109.261 14.1046C109.063 13.8834 108.915 13.6219 108.829 13.338C108.742 13.0542 108.718 12.7549 108.759 12.4609C108.719 12.1661 108.743 11.8661 108.83 11.5815C108.916 11.2968 109.063 11.034 109.26 10.8109C109.457 10.5879 109.699 10.4097 109.971 10.2885C110.243 10.1673 110.537 10.1059 110.835 10.1084C112.088 10.1084 112.843 10.9644 112.843 12.3784V12.6885H109.664V12.7383C109.65 12.9035 109.671 13.0699 109.725 13.2266C109.779 13.3834 109.865 13.5271 109.978 13.6485C110.091 13.77 110.228 13.8665 110.38 13.9319C110.533 13.9973 110.697 14.0301 110.863 14.0283C111.076 14.0538 111.291 14.0155 111.482 13.9183C111.672 13.8211 111.83 13.6694 111.934 13.4824L112.79 13.4824ZM109.664 12.0313H111.938C111.949 11.8801 111.929 11.7283 111.878 11.5856C111.827 11.4429 111.747 11.3124 111.642 11.2026C111.538 11.0927 111.412 11.0059 111.272 10.9477C111.132 10.8895 110.981 10.8613 110.83 10.8648C110.676 10.8628 110.524 10.8917 110.381 10.9496C110.239 11.0076 110.11 11.0934 110.001 11.2021C109.892 11.3109 109.806 11.4402 109.748 11.5826C109.691 11.725 109.662 11.8776 109.664 12.0313Z" fill="white"/>
</g>
<defs>
<clipPath id="clip0_6950_180990">
<rect width="135" height="40" fill="white"/>
</clipPath>
</defs>
</svg>
