<svg width="40" height="55" viewBox="0 0 40 55" fill="none" xmlns="http://www.w3.org/2000/svg">
<path d="M38.6242 21.6808L39.99 21.2335C39.99 21.2335 40.2116 18.9996 38.0386 16.5307L39.9971 15.8896V14.4764C39.9971 12.2895 35.3675 10.0044 34.9992 9.81636L39.9971 8.17945C40.0056 7.54263 39.6994 6.93431 39.1096 6.70209L19.4073 0.245605L0.088939 6.57387C0.0367309 6.59097 4.41075e-05 6.63656 4.41075e-05 6.69782C4.41075e-05 7.29332 0.395133 7.82186 0.934146 8.06547L4.78202 9.32628C4.41377e-05 11.3265 4.41075e-05 13.4136 4.41075e-05 13.4136V15.8868L1.25445 16.2985C-0.0295875 18.0166 0.0240316 19.6151 0.0127434 19.9527C4.41073e-05 20.3359 1.0428 21.1537 1.0428 21.1537C-0.117071 23.5827 0.0127434 26.479 0.0127434 26.479C0.0254426 26.7126 0.47415 27.1415 0.47415 27.1415C0.0734177 29.7229 0.00992132 32.1206 4.41075e-05 32.7987C-0.00136692 32.9298 0.0310868 33.0594 0.0959941 33.1734C0.544702 33.9655 1.26715 34.2846 1.26715 34.2846C1.26715 34.2846 20.2653 40.5089 20.6321 40.6286L39.9971 34.2846C39.9971 30.3298 39.4341 27.9435 39.4341 27.9435L39.99 27.7612C39.99 27.7612 40.1735 24.4574 38.6242 21.6808V21.6808ZM38.6467 25.5857C38.5183 25.3079 38.3772 25.0373 38.2248 24.7737C37.7225 23.9075 37.0946 23.1183 36.3835 22.4145L37.9441 21.903C38.3928 23.0969 38.5847 24.3192 38.6467 25.5857ZM5.20533 22.5171L20.6364 27.5731L35.9714 22.5498C37.5715 23.9702 38.0837 26.6172 38.0837 26.6172L19.4017 32.7375L2.13493 27.0802C2.68382 25.3165 3.57559 23.8277 5.20675 22.5171H5.20533ZM2.06156 23.151C2.24499 22.6538 2.46794 22.1709 2.73744 21.7079L3.17063 21.8503C2.76143 22.2478 2.39033 22.6809 2.06156 23.151ZM20.0028 22.4387C20.2483 22.3575 30.1453 19.115 30.1693 19.1065C30.1693 19.1065 33.2496 20.7334 34.2599 21.3417C34.2599 21.3417 23.6108 24.8307 20.3443 25.9006C19.7686 26.0886 19.4229 26.2026 19.4031 26.2083C19.4031 26.2083 6.12533 21.8589 6.11686 21.856C7.53353 20.9058 9.08002 20.155 10.5799 19.3515C10.6039 19.36 19.8659 22.3931 20.0042 22.4387H20.0028ZM11.126 15.5648C11.2953 15.4765 11.4647 15.3881 11.6326 15.297C12.9773 14.5718 14.2641 13.7455 15.4903 12.8323L16.2565 13.0831C15.1432 14.1914 13.9128 15.1744 12.6118 16.052C12.6118 16.052 12.3437 15.9637 12.0361 15.8625C11.6185 15.7258 11.126 15.5634 11.126 15.5634V15.5648ZM31.0342 18.823C31.0342 18.823 34.1611 17.7986 34.2556 17.7673C34.257 17.7673 34.2584 17.7687 34.2584 17.7687C34.2584 17.7687 36.3679 18.9611 37.192 20.3801L34.8835 21.1366C34.0411 20.4043 31.0342 18.823 31.0342 18.823V18.823ZM33.9141 13.9407C33.4753 14.0846 30.5644 15.0377 30.5644 15.0377C28.5678 14.1188 26.3016 12.6614 26.3016 12.6614L29.341 11.6655C29.341 11.6655 33.5261 13.6643 33.9706 13.9208C33.9706 13.9208 33.9508 13.9265 33.9156 13.9393L33.9141 13.9407ZM29.6669 15.3326C29.6669 15.3326 29.6246 15.3468 29.5484 15.371C28.9897 15.5534 26.6473 16.3213 26.6473 16.3213C24.8878 15.2158 23.2806 13.6515 23.2806 13.6515L25.7034 12.858C25.7034 12.858 27.8764 14.4222 29.6669 15.3326V15.3326ZM26.0547 16.5165C26.0547 16.5165 24.2034 17.1234 22.5554 17.6633C21.2304 18.0978 20.0353 18.4896 20.0353 18.4896L14.7721 16.7615C16.0068 15.8625 17.168 14.8624 18.2136 13.7242L20.6392 14.5191L22.8827 13.784C22.8827 13.784 24.4264 15.334 26.0561 16.5165H26.0547ZM16.955 12.3522C16.9239 12.3423 16.368 12.1599 16.368 12.1599C17.0721 11.5957 17.7677 10.9931 18.4478 10.352C18.5565 10.2495 18.6651 10.1469 18.7724 10.0429C18.2842 10.8108 17.566 11.6812 16.955 12.3522V12.3522ZM17.0834 9.09122C16.1846 9.93318 15.2392 10.7281 14.2543 11.4675C14.2204 11.4561 13.0126 11.0601 13.0097 11.0601C14.4179 10.258 15.7655 9.33341 17.0904 8.40739C17.5208 8.10679 17.9512 7.80334 18.3773 7.49562C18.6553 7.29617 18.9304 7.09529 19.207 6.89299C18.5537 7.6737 17.8228 8.39742 17.0834 9.08979V9.09122ZM10.6815 10.2979C10.6815 10.2979 9.17738 9.80496 8.63414 9.62688C8.5142 9.58699 8.44083 9.56277 8.44083 9.56277C8.44083 9.56277 11.0865 8.68234 19.4059 4.22321V4.46682C14.5449 8.25495 10.683 10.2965 10.683 10.2965L10.6815 10.2979ZM11.9063 11.6584L13.3427 12.1286C12.5596 12.6742 11.7511 13.1842 10.92 13.6515C10.2117 14.0504 9.48781 14.4208 8.76254 14.7884C8.76254 14.7884 8.58757 14.7314 8.34488 14.6516C7.77623 14.465 6.83225 14.1544 6.83225 14.1544C7.07636 14.0176 7.32047 13.8866 7.55893 13.7612C8.98689 13.0133 10.4699 12.3836 11.9077 11.657L11.9063 11.6584ZM8.22776 18.5808C7.05802 19.1948 5.89251 19.8174 4.79331 20.5496C4.73687 20.5867 4.68184 20.6251 4.62681 20.6622C4.40105 20.8175 4.18093 20.9813 3.96786 21.1508L3.26093 20.9186C4.14001 19.7347 5.29423 18.803 6.53594 18.0252C6.54299 18.028 8.22917 18.5793 8.22917 18.5793L8.22776 18.5808ZM38.6538 19.9028L37.6731 20.2248C36.7263 18.8956 34.8863 17.5636 34.8863 17.5636C34.8863 17.5636 35.7767 17.2715 36.5429 17.0208C37.12 16.8313 37.6266 16.666 37.6266 16.666C38.8118 18.3514 38.6552 19.9043 38.6552 19.9043L38.6538 19.9028ZM38.2079 12.5061C38.2248 12.5203 38.2333 12.5289 38.2333 12.5289L34.7071 13.6843C33.1705 12.6329 30.6222 11.4818 30.3231 11.3479L34.0355 10.1312C36.8985 11.4405 38.0301 12.3551 38.2079 12.5061ZM20.6378 1.60756L37.6463 7.17935C37.6463 7.17935 32.8375 8.755 32.8347 8.75643C26.8336 6.36445 20.6392 2.8584 20.6392 2.8584V1.60756H20.6378ZM20.6378 3.61916C20.6378 3.61916 21.6297 4.16338 23.0535 4.91844C25.6469 6.29322 29.6726 8.3675 31.7313 9.11829C31.7285 9.11829 28.1459 10.2936 28.1459 10.2936C26.1732 9.36902 20.6392 5.34013 20.6392 5.34013V3.62059L20.6378 3.61916ZM20.6378 5.91141C20.6378 5.91141 21.2756 6.38724 22.18 7.044C23.7392 8.17517 26.0914 9.84628 27.3514 10.5515C27.3486 10.5515 24.6902 11.4234 24.5943 11.4547C22.822 10.2039 20.6378 7.81901 20.6378 7.81901V5.91141V5.91141ZM20.6378 8.36322C20.6378 8.36322 22.1363 10.0443 24.116 11.6114L22.0516 12.2881C21.4449 11.6798 21.0032 10.9276 20.7633 10.1041C20.6759 9.80211 20.6378 9.48727 20.6378 9.17242V8.36322V8.36322ZM19.9816 11.4718C20.1199 11.2595 20.2582 11.0416 20.3852 10.8165C20.4967 10.9774 20.611 11.1356 20.7281 11.2937C21.0159 11.6812 21.3165 12.0587 21.6283 12.4263L19.4031 13.1557L18.8613 12.9776C19.2606 12.4961 19.6388 11.9961 19.9816 11.4718V11.4718ZM2.3988 7.58537L19.4031 2.01501V2.2686C11.0738 6.75908 5.97576 8.75785 5.97576 8.75785L2.3988 7.58537V7.58537ZM3.80136 11.9049C4.88362 11.2239 6.03079 10.6484 7.19489 10.117L9.51603 10.8777C7.93709 11.6356 6.32005 12.3394 4.82294 13.2384C4.72982 13.2939 4.6381 13.3509 4.54497 13.4079L2.59352 12.7668C2.9745 12.4505 3.38511 12.167 3.80136 11.9063V11.9049ZM3.13253 16.9125L4.33332 17.3057C3.43026 17.9568 2.60339 18.7104 1.9388 19.6193C1.76948 19.8501 1.61426 20.0895 1.47034 20.3345L1.40684 20.3131C1.60721 18.9911 2.25487 17.8699 3.13394 16.9125H3.13253ZM38.6369 32.9625C38.6369 32.9625 38.3674 33.0509 37.8933 33.2062C34.3572 34.3644 19.4031 39.2637 19.4031 39.2637C19.4031 39.2637 19.4003 39.2637 19.3975 39.2652C18.9586 39.1213 1.34193 33.35 1.34193 33.35C1.36451 31.5536 1.47175 29.7115 1.89224 27.9606L20.6364 34.1023L38.3928 28.2854C38.3928 28.2854 38.7836 31.6661 38.6355 32.9625H38.6369Z" fill="#B49164"/>
<path d="M18.4437 54.1841V47.3629H16.6489V52.9646H1.42811L0.000152588 53.9733V54.1841H18.4437Z" fill="#B49164"/>
<path d="M21.6369 50.963C21.6369 52.449 21.0301 53.3009 19.9747 53.3009C19.5881 53.3009 19.1859 53.1912 18.8416 52.9903L18.7217 53.1314C19.3383 53.9106 20.2075 54.358 21.1091 54.358C22.2662 54.358 23.4331 53.5858 23.4331 51.8634V47.3615H21.6383V50.9602L21.6369 50.963Z" fill="#B49164"/>
<path d="M23.9468 44.3201C23.8946 44.2973 23.8353 44.2816 23.7647 44.2717L23.7083 44.2631L23.7252 44.2075C23.7563 44.105 23.7732 43.991 23.7732 43.8713C23.7732 43.0308 23.4162 42.733 23.11 42.733C22.6119 42.733 22.032 43.2117 22.032 43.83C22.032 44.2745 22.3198 44.5153 22.9943 44.6349L23.1058 44.6549L23.0155 44.7233C22.5682 45.0623 21.8556 45.3587 21.1035 45.6578L20.9624 45.7134L21.1106 45.7476C21.2813 45.7875 21.5805 45.8188 21.7343 45.8217H21.7427L21.7512 45.8188C22.0503 45.7091 22.9619 45.3729 23.4444 44.7532L23.4656 44.7261L23.4981 44.7375C23.5418 44.7518 23.5898 44.7689 23.6335 44.7916L23.6688 44.8087L24.0018 44.3443L23.9468 44.3215V44.3201ZM23.4811 44.0223C23.4811 44.0779 23.4712 44.1335 23.4543 44.189L23.4402 44.2303L23.3979 44.2218C22.5089 44.0423 22.3227 43.7545 22.3227 43.5451C22.3227 43.3513 22.5894 43.1533 22.8518 43.1533C23.1397 43.1533 23.4698 43.5251 23.4811 44.0223V44.0223Z" fill="#B49164"/>
<path d="M35.5046 47.3614L33.9641 48.9168L35.5046 50.4721L37.0451 48.9168L35.5046 47.3614Z" fill="#B49164"/>
<path d="M37.1935 44.3156C37.1413 44.2928 37.082 44.2772 37.0114 44.2672L36.955 44.2586L36.9719 44.2031C37.003 44.0991 37.0199 43.9865 37.0199 43.8669C37.0199 43.0263 36.6629 42.7286 36.3567 42.7286C35.8586 42.7286 35.2787 43.2073 35.2787 43.8255C35.2787 44.27 35.5665 44.5108 36.241 44.6305L36.3525 44.6504L36.2622 44.7188C35.8149 45.0579 35.1023 45.3542 34.3502 45.6534L34.2091 45.7089L34.3573 45.7431C34.528 45.783 34.8272 45.8144 34.981 45.8172H34.9894L34.9979 45.8144C35.297 45.7047 36.2072 45.3684 36.6911 44.7487L36.7123 44.7217L36.7448 44.733C36.7885 44.7473 36.8351 44.7644 36.8802 44.7872L36.9155 44.8043L37.2485 44.3398L37.1935 44.3171V44.3156ZM36.7278 44.0179C36.7278 44.0734 36.7179 44.129 36.6996 44.1846L36.6855 44.2259L36.6432 44.2173C35.7542 44.0378 35.568 43.75 35.568 43.5406C35.568 43.3469 35.8346 43.1488 36.0971 43.1488C36.3849 43.1488 36.7151 43.5207 36.7264 44.0179H36.7278Z" fill="#B49164"/>
<path d="M39.9972 54.1813V47.3602H38.2024V52.9619L28.0147 52.9647C28.1389 52.6541 28.2095 52.288 28.2095 51.8649V47.363H26.4146V50.9617C26.4146 52.4476 25.8079 53.2995 24.7524 53.2995C24.3658 53.2995 23.9637 53.1898 23.6194 52.9889L23.4994 53.13C24.1161 53.9092 24.9867 54.3566 25.8869 54.3566C26.6728 54.3566 27.4616 54.0004 27.8877 53.2325L29.0702 54.1813L40 54.1785L39.9972 54.1813Z" fill="#B49164"/>
<path d="M8.80641 48.4914C10.003 48.4914 11.0006 48.9886 11.5438 49.8548C12.0165 50.6084 12.0885 51.533 11.7442 52.4576L11.7103 52.5474L11.8133 52.6129L11.881 52.5716C13.3104 51.6883 13.5912 50.3092 13.3993 49.3975C13.1256 48.1067 12.0024 47.2733 10.5363 47.2733L4.38565 47.2662L7.48992 43.9739H5.82067L2.89702 47.3332L3.11291 48.4928H8.80641V48.4914Z" fill="#B49164"/>
</svg>
